<svg width="32" height="32" viewBox="0 0 32 32" fill="none" xmlns="http://www.w3.org/2000/svg">
<g filter="url(#filter0_d)">
<path fill-rule="evenodd" clip-rule="evenodd" d="M25 1.5H7C6.60218 1.5 6.22064 1.65804 5.93934 1.93934C5.65804 2.22064 5.5 2.60218 5.5 3V21C5.5 21.3978 5.65804 21.7794 5.93934 22.0607C6.22064 22.342 6.60218 22.5 7 22.5H25C25.3978 22.5 25.7794 22.342 26.0607 22.0607C26.342 21.7794 26.5 21.3978 26.5 21V3C26.5 2.60218 26.342 2.22064 26.0607 1.93934C25.7794 1.65804 25.3978 1.5 25 1.5ZM7 0C6.20435 0 5.44129 0.316071 4.87868 0.87868C4.31607 1.44129 4 2.20435 4 3L4 21C4 21.7956 4.31607 22.5587 4.87868 23.1213C5.44129 23.6839 6.20435 24 7 24H25C25.7956 24 26.5587 23.6839 27.1213 23.1213C27.6839 22.5587 28 21.7956 28 21V3C28 2.20435 27.6839 1.44129 27.1213 0.87868C26.5587 0.316071 25.7956 0 25 0L7 0Z" fill="black"/>
<path fill-rule="evenodd" clip-rule="evenodd" d="M13 17.25C13 17.0511 13.079 16.8603 13.2197 16.7197C13.3603 16.579 13.5511 16.5 13.75 16.5H18.25C18.4489 16.5 18.6397 16.579 18.7803 16.7197C18.921 16.8603 19 17.0511 19 17.25C19 17.4489 18.921 17.6397 18.7803 17.7803C18.6397 17.921 18.4489 18 18.25 18H13.75C13.5511 18 13.3603 17.921 13.2197 17.7803C13.079 17.6397 13 17.4489 13 17.25ZM10 12.75C10 12.5511 10.079 12.3603 10.2197 12.2197C10.3603 12.079 10.5511 12 10.75 12H21.25C21.4489 12 21.6397 12.079 21.7803 12.2197C21.921 12.3603 22 12.5511 22 12.75C22 12.9489 21.921 13.1397 21.7803 13.2803C21.6397 13.421 21.4489 13.5 21.25 13.5H10.75C10.5511 13.5 10.3603 13.421 10.2197 13.2803C10.079 13.1397 10 12.9489 10 12.75ZM7 8.25C7 8.05109 7.07902 7.86032 7.21967 7.71967C7.36032 7.57902 7.55109 7.5 7.75 7.5H24.25C24.4489 7.5 24.6397 7.57902 24.7803 7.71967C24.921 7.86032 25 8.05109 25 8.25C25 8.44891 24.921 8.63968 24.7803 8.78033C24.6397 8.92098 24.4489 9 24.25 9H7.75C7.55109 9 7.36032 8.92098 7.21967 8.78033C7.07902 8.63968 7 8.44891 7 8.25Z" fill="black"/>
</g>
<defs>
<filter id="filter0_d" x="0" y="0" width="32" height="32" filterUnits="userSpaceOnUse" color-interpolation-filters="sRGB">
<feFlood flood-opacity="0" result="BackgroundImageFix"/>
<feColorMatrix in="SourceAlpha" type="matrix" values="0 0 0 0 0 0 0 0 0 0 0 0 0 0 0 0 0 0 127 0"/>
<feOffset dy="4"/>
<feGaussianBlur stdDeviation="2"/>
<feColorMatrix type="matrix" values="0 0 0 0 0 0 0 0 0 0 0 0 0 0 0 0 0 0 0.25 0"/>
<feBlend mode="normal" in2="BackgroundImageFix" result="effect1_dropShadow"/>
<feBlend mode="normal" in="SourceGraphic" in2="effect1_dropShadow" result="shape"/>
</filter>
</defs>
</svg>
