<svg width="45" height="45" viewBox="0 0 45 45" fill="none" xmlns="http://www.w3.org/2000/svg">
<circle cx="22.5" cy="22.5" r="22" fill="#C4C4C4" stroke="#2C7A3D"/>
<path d="M14 16.25C13.8011 16.25 13.6103 16.329 13.4697 16.4697C13.329 16.6104 13.25 16.8011 13.25 17C13.25 17.1989 13.329 17.3897 13.4697 17.5304C13.6103 17.671 13.8011 17.75 14 17.75H15.665L17.633 25.625C17.8003 26.2925 18.398 26.75 19.0858 26.75H28.4382C29.1155 26.75 29.6908 26.3 29.8685 25.6475L31.8125 18.5H30.242L28.4375 25.25H19.085L17.1177 17.375C17.0365 17.052 16.8492 16.7655 16.5858 16.5615C16.3224 16.3575 15.9981 16.2479 15.665 16.25H14ZM27.5 26.75C26.2662 26.75 25.25 27.7663 25.25 29C25.25 30.2338 26.2662 31.25 27.5 31.25C28.7338 31.25 29.75 30.2338 29.75 29C29.75 27.7663 28.7338 26.75 27.5 26.75ZM20.75 26.75C19.5163 26.75 18.5 27.7663 18.5 29C18.5 30.2338 19.5163 31.25 20.75 31.25C21.9838 31.25 23 30.2338 23 29C23 27.7663 21.9838 26.75 20.75 26.75ZM23 16.25V20H20.75L23.75 23L26.75 20H24.5V16.25H23ZM20.75 28.25C21.173 28.25 21.5 28.577 21.5 29C21.5 29.423 21.173 29.75 20.75 29.75C20.327 29.75 20 29.423 20 29C20 28.577 20.327 28.25 20.75 28.25ZM27.5 28.25C27.923 28.25 28.25 28.577 28.25 29C28.25 29.423 27.923 29.75 27.5 29.75C27.077 29.75 26.75 29.423 26.75 29C26.75 28.577 27.077 28.25 27.5 28.25Z" fill="black"/>
</svg>
